<svg width="158" height="56" viewBox="0 0 158 56" fill="none" xmlns="http://www.w3.org/2000/svg">
<path d="M5.39648 18.1758C4.47656 18.1758 3.67969 17.9971 3.00586 17.6396C2.33203 17.2822 1.81348 16.7344 1.4502 15.9961C1.08691 15.2578 0.905273 14.3203 0.905273 13.1836C0.905273 12 1.10449 11.0332 1.50293 10.2832C1.90137 9.5332 2.45215 8.97949 3.15527 8.62207C3.86426 8.26465 4.67578 8.08594 5.58984 8.08594C6.16992 8.08594 6.69434 8.14453 7.16309 8.26172C7.6377 8.37305 8.03906 8.51074 8.36719 8.6748L7.75195 10.3271C7.39453 10.1807 7.02832 10.0576 6.65332 9.95801C6.27832 9.8584 5.91797 9.80859 5.57227 9.80859C5.00391 9.80859 4.5293 9.93457 4.14844 10.1865C3.77344 10.4385 3.49219 10.8135 3.30469 11.3115C3.12305 11.8096 3.03223 12.4277 3.03223 13.166C3.03223 13.8809 3.12598 14.4844 3.31348 14.9766C3.50098 15.4629 3.7793 15.832 4.14844 16.084C4.51758 16.3301 4.97168 16.4531 5.51074 16.4531C6.04395 16.4531 6.52148 16.3887 6.94336 16.2598C7.36523 16.1309 7.76367 15.9639 8.13867 15.7588V17.5518C7.76953 17.7627 7.37402 17.918 6.95215 18.0176C6.53027 18.123 6.01172 18.1758 5.39648 18.1758ZM21.7002 8.27051V18H19.7842V12.4453C19.7842 12.082 19.793 11.7188 19.8105 11.3555C19.8281 10.9922 19.8516 10.6465 19.8809 10.3184H19.8281L16.8662 18H15.2402L12.3047 10.3096H12.2432C12.2725 10.6436 12.293 10.9893 12.3047 11.3467C12.3223 11.7041 12.3311 12.0908 12.3311 12.5068V18H10.415V8.27051H13.2979L16.0752 15.5391L18.8965 8.27051H21.7002ZM33.2402 13.1133C33.2402 13.9219 33.1348 14.6396 32.9238 15.2666C32.7129 15.8936 32.4053 16.4238 32.001 16.8574C31.5967 17.2852 31.1104 17.6133 30.542 17.8418C29.9736 18.0645 29.332 18.1758 28.6172 18.1758C27.9492 18.1758 27.3369 18.0645 26.7803 17.8418C26.2236 17.6133 25.7402 17.2852 25.3301 16.8574C24.9258 16.4238 24.6123 15.8936 24.3896 15.2666C24.167 14.6396 24.0557 13.9219 24.0557 13.1133C24.0557 12.041 24.2402 11.1328 24.6094 10.3887C24.9844 9.63867 25.5176 9.06738 26.209 8.6748C26.9004 8.28223 27.7236 8.08594 28.6787 8.08594C29.5752 8.08594 30.3662 8.28223 31.0518 8.6748C31.7373 9.06738 32.2734 9.63867 32.6602 10.3887C33.0469 11.1387 33.2402 12.0469 33.2402 13.1133ZM26.1826 13.1133C26.1826 13.8223 26.2676 14.4287 26.4375 14.9326C26.6133 15.4365 26.8828 15.8232 27.2461 16.0928C27.6094 16.3564 28.0781 16.4883 28.6523 16.4883C29.2266 16.4883 29.6953 16.3564 30.0586 16.0928C30.4219 15.8232 30.6885 15.4365 30.8584 14.9326C31.0283 14.4287 31.1133 13.8223 31.1133 13.1133C31.1133 12.4043 31.0283 11.8037 30.8584 11.3115C30.6885 10.8135 30.4219 10.4355 30.0586 10.1777C29.6953 9.91406 29.2236 9.78223 28.6436 9.78223C27.7881 9.78223 27.1641 10.0693 26.7715 10.6436C26.3789 11.2178 26.1826 12.041 26.1826 13.1133ZM42.9609 9.89648H39.7617V18H37.7051V9.89648H34.5234V8.27051H42.9609V9.89648ZM49.834 8.08594C50.9883 8.08594 51.9141 8.50781 52.6113 9.35156C53.3145 10.1953 53.666 11.4492 53.666 13.1133C53.666 14.2148 53.502 15.1436 53.1738 15.8994C52.8516 16.6494 52.3975 17.2178 51.8115 17.6045C51.2314 17.9854 50.5547 18.1758 49.7812 18.1758C49.2891 18.1758 48.8613 18.1113 48.498 17.9824C48.1348 17.8535 47.8242 17.6865 47.5664 17.4814C47.3086 17.2705 47.0918 17.042 46.916 16.7959H46.793C46.8223 17.0303 46.8486 17.291 46.8721 17.5781C46.9014 17.8594 46.916 18.1172 46.916 18.3516V22.3154H44.8418V8.27051H46.5293L46.8193 9.61523H46.916C47.0977 9.33984 47.3174 9.08496 47.5752 8.85059C47.8389 8.61621 48.1553 8.43164 48.5244 8.29688C48.8994 8.15625 49.3359 8.08594 49.834 8.08594ZM49.2803 9.77344C48.7119 9.77344 48.2549 9.8877 47.9092 10.1162C47.5693 10.3389 47.3203 10.6758 47.1621 11.127C47.0098 11.5781 46.9277 12.1436 46.916 12.8232V13.1133C46.916 13.834 46.9893 14.4463 47.1357 14.9502C47.2881 15.4482 47.5371 15.8291 47.8828 16.0928C48.2344 16.3506 48.709 16.4795 49.3066 16.4795C49.8105 16.4795 50.2266 16.3418 50.5547 16.0664C50.8887 15.791 51.1377 15.3984 51.3018 14.8887C51.4658 14.3789 51.5479 13.7783 51.5479 13.0869C51.5479 12.0381 51.3604 11.2236 50.9854 10.6436C50.6162 10.0635 50.0479 9.77344 49.2803 9.77344ZM59.9326 8.08594C60.7998 8.08594 61.5439 8.26465 62.165 8.62207C62.7861 8.97949 63.2637 9.48633 63.5977 10.1426C63.9316 10.7988 64.0986 11.584 64.0986 12.498V13.6055H57.6035C57.627 14.5488 57.8789 15.2754 58.3594 15.7852C58.8457 16.2949 59.5254 16.5498 60.3984 16.5498C61.0195 16.5498 61.5762 16.4912 62.0684 16.374C62.5664 16.251 63.0791 16.0723 63.6064 15.8379V17.5166C63.1201 17.7451 62.625 17.9121 62.1211 18.0176C61.6172 18.123 61.0137 18.1758 60.3105 18.1758C59.3555 18.1758 58.5146 17.9912 57.7881 17.6221C57.0674 17.2471 56.502 16.6904 56.0918 15.9521C55.6875 15.2139 55.4854 14.2969 55.4854 13.2012C55.4854 12.1113 55.6699 11.1855 56.0391 10.4238C56.4082 9.66211 56.9268 9.08203 57.5947 8.68359C58.2627 8.28516 59.042 8.08594 59.9326 8.08594ZM59.9326 9.6416C59.2822 9.6416 58.7549 9.85254 58.3506 10.2744C57.9521 10.6963 57.7178 11.3145 57.6475 12.1289H62.0771C62.0713 11.6426 61.9893 11.2119 61.8311 10.8369C61.6787 10.4619 61.4443 10.1689 61.1279 9.95801C60.8174 9.74707 60.4189 9.6416 59.9326 9.6416ZM73.7754 9.89648H70.5762V18H68.5195V9.89648H65.3379V8.27051H73.7754V9.89648ZM77.7305 12.1553H80.1475C81.0615 12.1553 81.8174 12.2607 82.415 12.4717C83.0186 12.6768 83.4697 12.9873 83.7686 13.4033C84.0674 13.8193 84.2168 14.3408 84.2168 14.9678C84.2168 15.583 84.0762 16.1191 83.7949 16.5762C83.5137 17.0273 83.0742 17.3789 82.4766 17.6309C81.8848 17.877 81.1113 18 80.1562 18H75.6562V8.27051H77.7305V12.1553ZM82.1426 15.0205C82.1426 14.5342 81.9609 14.1914 81.5977 13.9922C81.2344 13.7871 80.7158 13.6846 80.042 13.6846H77.7305V16.4795H80.0596C80.6748 16.4795 81.1758 16.3682 81.5625 16.1455C81.9492 15.917 82.1426 15.542 82.1426 15.0205ZM96.1699 8.08594C97.3242 8.08594 98.25 8.50781 98.9473 9.35156C99.6504 10.1953 100.002 11.4492 100.002 13.1133C100.002 14.2148 99.8379 15.1436 99.5098 15.8994C99.1875 16.6494 98.7334 17.2178 98.1475 17.6045C97.5674 17.9854 96.8906 18.1758 96.1172 18.1758C95.625 18.1758 95.1973 18.1113 94.834 17.9824C94.4707 17.8535 94.1602 17.6865 93.9023 17.4814C93.6445 17.2705 93.4277 17.042 93.252 16.7959H93.1289C93.1582 17.0303 93.1846 17.291 93.208 17.5781C93.2373 17.8594 93.252 18.1172 93.252 18.3516V22.3154H91.1777V8.27051H92.8652L93.1553 9.61523H93.252C93.4336 9.33984 93.6533 9.08496 93.9111 8.85059C94.1748 8.61621 94.4912 8.43164 94.8604 8.29688C95.2354 8.15625 95.6719 8.08594 96.1699 8.08594ZM95.6162 9.77344C95.0479 9.77344 94.5908 9.8877 94.2451 10.1162C93.9053 10.3389 93.6562 10.6758 93.498 11.127C93.3457 11.5781 93.2637 12.1436 93.252 12.8232V13.1133C93.252 13.834 93.3252 14.4463 93.4717 14.9502C93.624 15.4482 93.873 15.8291 94.2188 16.0928C94.5703 16.3506 95.0449 16.4795 95.6426 16.4795C96.1465 16.4795 96.5625 16.3418 96.8906 16.0664C97.2246 15.791 97.4736 15.3984 97.6377 14.8887C97.8018 14.3789 97.8838 13.7783 97.8838 13.0869C97.8838 12.0381 97.6963 11.2236 97.3213 10.6436C96.9521 10.0635 96.3838 9.77344 95.6162 9.77344ZM106.207 8.08594C107.438 8.08594 108.366 8.3584 108.993 8.90332C109.626 9.44824 109.942 10.2979 109.942 11.4521V18H108.475L108.079 16.6201H108.009C107.733 16.9717 107.449 17.2617 107.156 17.4902C106.863 17.7188 106.523 17.8887 106.137 18C105.756 18.1172 105.29 18.1758 104.739 18.1758C104.159 18.1758 103.641 18.0703 103.184 17.8594C102.727 17.6426 102.366 17.3145 102.103 16.875C101.839 16.4355 101.707 15.8789 101.707 15.2051C101.707 14.2031 102.079 13.4502 102.823 12.9463C103.573 12.4424 104.704 12.1641 106.216 12.1113L107.903 12.0498V11.54C107.903 10.8662 107.745 10.3857 107.429 10.0986C107.118 9.81152 106.679 9.66797 106.11 9.66797C105.624 9.66797 105.152 9.73828 104.695 9.87891C104.238 10.0195 103.793 10.1924 103.359 10.3975L102.691 8.93848C103.166 8.68652 103.705 8.48145 104.309 8.32324C104.918 8.16504 105.551 8.08594 106.207 8.08594ZM107.895 13.3506L106.638 13.3945C105.606 13.4297 104.883 13.6055 104.467 13.9219C104.051 14.2383 103.843 14.6719 103.843 15.2227C103.843 15.7031 103.986 16.0547 104.273 16.2773C104.561 16.4941 104.938 16.6025 105.407 16.6025C106.122 16.6025 106.714 16.4004 107.183 15.9961C107.657 15.5859 107.895 14.9854 107.895 14.1943V13.3506ZM112.28 12.1641C112.28 10.752 112.436 9.55078 112.746 8.56055C113.057 7.57031 113.546 6.77637 114.214 6.17871C114.882 5.58105 115.749 5.17383 116.815 4.95703C117.507 4.79883 118.21 4.66406 118.925 4.55273C119.64 4.44141 120.354 4.33301 121.069 4.22754L121.351 6.04688C121.017 6.08789 120.659 6.1377 120.278 6.19629C119.897 6.24902 119.514 6.30469 119.127 6.36328C118.746 6.42188 118.38 6.4834 118.028 6.54785C117.683 6.60645 117.372 6.66504 117.097 6.72363C116.546 6.84082 116.08 7.03418 115.699 7.30371C115.324 7.56738 115.031 7.9541 114.82 8.46387C114.609 8.97363 114.483 9.65332 114.442 10.5029H114.557C114.715 10.2627 114.935 10.0225 115.216 9.78223C115.497 9.54199 115.837 9.34277 116.235 9.18457C116.64 9.02051 117.1 8.93848 117.615 8.93848C118.424 8.93848 119.109 9.1084 119.672 9.44824C120.24 9.78809 120.671 10.2803 120.964 10.9248C121.263 11.5693 121.412 12.3457 121.412 13.2539C121.412 14.3379 121.219 15.2461 120.832 15.9785C120.451 16.7051 119.918 17.2529 119.232 17.6221C118.547 17.9912 117.747 18.1758 116.833 18.1758C116.13 18.1758 115.497 18.0439 114.935 17.7803C114.378 17.5166 113.9 17.1299 113.502 16.6201C113.109 16.1045 112.808 15.4746 112.597 14.7305C112.386 13.9805 112.28 13.125 112.28 12.1641ZM116.974 16.4795C117.442 16.4795 117.847 16.3799 118.187 16.1807C118.532 15.9814 118.799 15.6592 118.986 15.2139C119.18 14.7686 119.276 14.1797 119.276 13.4473C119.276 12.5449 119.112 11.8359 118.784 11.3203C118.462 10.7988 117.929 10.5381 117.185 10.5381C116.728 10.5381 116.309 10.6406 115.928 10.8457C115.547 11.0508 115.225 11.291 114.961 11.5664C114.697 11.8359 114.51 12.0732 114.398 12.2783C114.398 12.8115 114.437 13.3271 114.513 13.8252C114.595 14.3232 114.729 14.7744 114.917 15.1787C115.11 15.5771 115.374 15.8936 115.708 16.1279C116.042 16.3623 116.464 16.4795 116.974 16.4795ZM132.398 13.1133C132.398 13.9219 132.293 14.6396 132.082 15.2666C131.871 15.8936 131.563 16.4238 131.159 16.8574C130.755 17.2852 130.269 17.6133 129.7 17.8418C129.132 18.0645 128.49 18.1758 127.775 18.1758C127.107 18.1758 126.495 18.0645 125.938 17.8418C125.382 17.6133 124.898 17.2852 124.488 16.8574C124.084 16.4238 123.771 15.8936 123.548 15.2666C123.325 14.6396 123.214 13.9219 123.214 13.1133C123.214 12.041 123.398 11.1328 123.768 10.3887C124.143 9.63867 124.676 9.06738 125.367 8.6748C126.059 8.28223 126.882 8.08594 127.837 8.08594C128.733 8.08594 129.524 8.28223 130.21 8.6748C130.896 9.06738 131.432 9.63867 131.818 10.3887C132.205 11.1387 132.398 12.0469 132.398 13.1133ZM125.341 13.1133C125.341 13.8223 125.426 14.4287 125.596 14.9326C125.771 15.4365 126.041 15.8232 126.404 16.0928C126.768 16.3564 127.236 16.4883 127.811 16.4883C128.385 16.4883 128.854 16.3564 129.217 16.0928C129.58 15.8232 129.847 15.4365 130.017 14.9326C130.187 14.4287 130.271 13.8223 130.271 13.1133C130.271 12.4043 130.187 11.8037 130.017 11.3115C129.847 10.8135 129.58 10.4355 129.217 10.1777C128.854 9.91406 128.382 9.78223 127.802 9.78223C126.946 9.78223 126.322 10.0693 125.93 10.6436C125.537 11.2178 125.341 12.041 125.341 13.1133ZM142.119 9.89648H138.92V18H136.863V9.89648H133.682V8.27051H142.119V9.89648ZM144 18V8.27051H146.074V12.1553H148.034C148.948 12.1553 149.701 12.2607 150.293 12.4717C150.885 12.6768 151.324 12.9873 151.611 13.4033C151.898 13.8193 152.042 14.3408 152.042 14.9678C152.042 15.583 151.904 16.1191 151.629 16.5762C151.354 17.0273 150.923 17.3789 150.337 17.6309C149.751 17.877 148.983 18 148.034 18H144ZM146.074 16.4795H147.894C148.515 16.4795 149.016 16.3682 149.396 16.1455C149.783 15.917 149.977 15.542 149.977 15.0205C149.977 14.5342 149.798 14.1914 149.44 13.9922C149.089 13.7871 148.573 13.6846 147.894 13.6846H146.074V16.4795ZM153.545 18V8.27051H155.619V18H153.545Z" fill="white"/>
<path d="M78.5 55.0455C77.8368 55.0455 77.1738 54.7923 76.6682 54.287L60.7591 38.3777C59.7471 37.3656 59.7471 35.7248 60.7591 34.7132C61.7707 33.7016 63.4112 33.7016 64.4233 34.7132L78.5 48.7906L92.5767 34.7137C93.5887 33.7021 95.229 33.7021 96.2406 34.7137C97.2531 35.7253 97.2531 37.3661 96.2406 38.3782L80.3317 54.2875C79.8259 54.7929 79.1628 55.0455 78.5 55.0455Z" fill="white"/>
</svg>
